# AST/ASF file generated using VICON BodyLanguage
# -----------------------------------------------
:version 1.10
:name VICON
:units
  mass 1.0
  length 0.45
  angle deg
:documentation
   .ast/.asf automatically generated from VICON data using
   VICON BodyBuilder and BodyLanguage model FoxedUp or BRILLIANT.MOD
:root
   order TX TY TZ RX RY RZ
   axis XYZ
   position 0 0 0  
   orientation 0 0 0 
:bonedata
  begin
     id 1 
     name lhipjoint
     direction 0.623529 -0.717805 0.309788 
     length 2.23224 
     axis 0 0 0  XYZ
  end
  begin
     id 2 
     name lfemur
     direction 0.34202 -0.939693 0  
     length 7.11402  
     axis 0 0 20  XYZ
    dof rx ry rz
    limits (-160.0 20.0)
           (-70.0 70.0)
           (-60.0 70.0)
  end
  begin
     id 3 
     name ltibia
     direction 0.34202 -0.939693 0   
     length 6.78496   
     axis 0 0 20   XYZ
    dof rx
    limits (-10.0 170.0)
  end
  begin
     id 4 
     name lfoot
     direction 0.125078 -0.343648 0.930732   
     length 1.84054   
     axis -90 7.62852e-016 20   XYZ
    dof rx rz
    limits (-45.0 90.0)
           (-70.0 20.0)
  end
  begin
     id 5 
     name ltoes
     direction 1.53565e-011 -4.21893e-011 1   
     length 0.916474   
     axis -90 7.62852e-016 20   XYZ
    dof rx
    limits (-90.0 20.0)
  end
  begin
     id 6 
     name rhipjoint
     direction -0.564688 -0.757748 0.327026   
     length 2.11457  
     axis 0 0 0  XYZ 
  end
  begin
     id 7 
     name rfemur
     direction -0.34202 -0.939693 0   
     length 7.14609   
     axis 0 0 -20   XYZ
    dof rx ry rz
    limits (-160.0 20.0)
           (-70.0 70.0)
           (-70.0 60.0)
  end
  begin
     id 8 
     name rtibia
     direction -0.34202 -0.939693 0   
     length 6.78101   
     axis 0 0 -20   XYZ
    dof rx
    limits (-10.0 170.0)
 end
 begin
     id 9 
     name rfoot
     direction -0.0992671 -0.272734 0.956955   
     length 1.96168  
     axis -90 -7.62852e-016 -20   XYZ
    dof rx rz
    limits (-45.0 90.0)
           (-20.0 70.0)
  end
  begin
     id 10 
     name rtoes
     direction -1.5356e-011 -4.21891e-011 1   
     length 0.982933   
     axis -90 -7.62852e-016 -20   XYZ
    dof rx
    limits (-90.0 20.0)
  end
  begin
     id 11 
     name lowerback
     direction -0.00596953 0.998668 0.0512524   
     length 1.87557   
     axis 0 0 0   XYZ
    dof rx ry rz
    limits (-20.0 45.0)
           (-30.0 30.0)
           (-30.0 30.0)
  end
  begin
     id 12 
     name upperback
     direction 0.00584879 0.999652 0.0257308   
     length 1.87883   
     axis 0 0 0   XYZ
    dof rx ry rz
    limits (-20.0 45.0)
           (-30.0 30.0)
           (-30.0 30.0)
  end
  begin
     id 13 
     name thorax
     direction 0.010104 0.999947 0.00178881   
     length 1.87779   
     axis 0 0 0   XYZ
    dof rx ry rz
    limits (-20.0 45.0)
           (-30.0 30.0)
           (-30.0 30.0)
  end
  begin
     id 14 
     name lowerneck
     direction 0.0120771 0.995934 -0.0892773   
     length 1.40897   
     axis 0 0 0   XYZ
    dof rx ry rz
    limits (-20.0 45.0)
           (-30.0 30.0)
           (-30.0 30.0)
  end
  begin
     id 15 
     name upperneck
     direction -0.030568 0.999465 -0.0116366   
     length 1.38661   
     axis 0 0 0   XYZ
    dof rx ry rz
    limits (-20.0 45.0)
           (-30.0 30.0)
           (-30.0 30.0)
  end
  begin
     id 16
     name head
     direction -0.0170715 0.999854 -0.00104426  
     length 1.47052  
     axis 0 0 0   XYZ
    dof rx ry rz
    limits (-20.0 45.0)
           (-30.0 30.0)
           (-30.0 30.0)
  end
  begin
     id 17 
     name lclavicle
     direction 0.977763 0.206143 0.038532  
     length 3.02424  
     axis 0 0 0   XYZ
    dof ry rz
    limits (-20.0 10.0)
           (0.0 20.0)
  end
  begin
     id 18 
     name lhumerus
     direction 1 -4.48965e-011 -2.62654e-027   
     length 4.68382   
     axis 180 -30 -90   XYZ
    dof rx ry rz
    limits (-60.0 90.0)
           (-90.0 90.0)
           (-90.0 90.0)
  end
  begin
     id 19
     name lradius
     direction 1 -4.48973e-011 -1.54954e-027   
     length 2.98124   
     axis 180 -30 -90   XYZ
    dof rx
    limits (-10.0 170.0)
  end
  begin
     id 20
     name lwrist
     direction 1 -4.48959e-011 7.20928e-028   
     length 1.49062   
     axis -5.52449e-016 90 90   XYZ
    dof ry
    limits (-180.0 0.0)
 end
  begin
     id 21 
     name lhand
     direction 1 -4.48971e-011 1.44186e-027   
     length 0.707595   
     axis -9.20027e-016 90 90   XYZ
    dof rx rz
    limits (-90.0 90.0)
           (-45.0 45.0)
  end
  begin
     id 22 
     name lfingers
     direction 1 -4.48985e-011 2.88371e-027   
     length 0.570481   
     axis -1.84005e-015 90 90   XYZ
    dof rx
    limits (0.0 90.0)
  end
  begin
     id 23
     name lthumb
     direction 0.707107 -6.34929e-011 0.707107   
     length 0.819101   
     axis -90 45 2.85299e-015   XYZ
    dof rx rz
    limits (-45.0 45.0)
           (-45.0 45.0)
  end
  begin
     id 24 
     name rclavicle
     direction -0.958661 0.284411 -0.00895327   
     length 3.11921  
     axis 0 0 0   XYZ 
    dof ry rz
    limits (-10.0 20.0)
           (-20.0 0.0)
  end
  begin
     id 25 
     name rhumerus
     direction -1 -4.48963e-011 -4.22193e-027  
     length 4.75876   
     axis 180 30 90   XYZ
    dof rx ry rz
    limits (-90.0 60.0)
           (-90.0 90.0)
           (-90.0 90.0)
  end
  begin
     id 26 
     name rradius
     direction -1 -4.48968e-011 -1.07616e-027   
     length 2.93293   
     axis 180 30 90   XYZ
    dof rx
    limits (-10.0 170.0)
  end
  begin
     id 27 
     name rwrist
     direction -1 -4.48965e-011 7.20928e-028   
     length 1.46647   
     axis -5.52449e-016 -90 -90   XYZ
    dof ry
    limits (-180.0 0.0)
  end
  begin
     id 28
     name rhand
     direction -1 -4.48971e-011 1.44186e-027   
     length 0.831748   
     axis -9.20027e-016 -90 -90   XYZ
    dof rx rz
    limits (-90.0 90.0)
           (-45.0 45.0)
  end
  begin
     id 29
     name rfingers
     direction -1 -4.48961e-011 2.88371e-027   
     length 0.670577   
     axis -1.84005e-015 -90 -90   XYZ
    dof rx
    limits (0.0 90.0)
  end
  begin
     id 30
     name rthumb
     direction -0.707107 -6.34929e-011 0.707107   
     length 0.962818   
     axis -90 -45 -2.85299e-015   XYZ
    dof rx rz
    limits (-45.0 45.0)
           (-45.0 45.0)
  end
:hierarchy
  begin
    root lhipjoint rhipjoint lowerback
    lhipjoint lfemur
    lfemur ltibia
    ltibia lfoot
    lfoot ltoes
    rhipjoint rfemur
    rfemur rtibia
    rtibia rfoot
    rfoot rtoes
    lowerback upperback
    upperback thorax
    thorax lowerneck lclavicle rclavicle
    lowerneck upperneck
    upperneck head
    lclavicle lhumerus
    lhumerus lradius
    lradius lwrist
    lwrist lhand lthumb
    lhand lfingers
    rclavicle rhumerus
    rhumerus rradius
    rradius rwrist
    rwrist rhand rthumb
    rhand rfingers
  end

#!OML:ASF E:\id_vita\Project 1\Capture day 1\Session 1\Female.ASF
:FULLY-SPECIFIED
:DEGREES
235
root -24.292 16.3855 2.05777 -166.889 7.33325 -176.531
lowerback -14.5032 -1.50774 -3.92327
upperback -5.53823 -0.827702 4.3613
thorax 2.39686 -0.00216251 6.72658
lowerneck 12.263 6.56907 -2.76135
upperneck 4.32075 12.2542 27.9556
head -2.98774 6.6633 8.19527
rclavicle -1.799e-014 -1.39149e-014
rhumerus 55.9799 -16.2955 -52.8907
rradius 141.893
rwrist -12.988
rhand -7.07566 7.98575
rfingers 7.12502
rthumb 18.7981 -21.1259
lclavicle -1.799e-014 -1.39149e-014
lhumerus -41.8146 36.8534 69.0368
lradius 11.5998
lwrist -69.1527
lhand 5.58892 22.6679
lfingers 7.12502
lthumb 30.9315 50.0824
rfemur -18.5745 6.428 19.7642
rtibia 22.8439
rfoot -8.45345 -13.3424
rtoes -23.0968
lfemur -19.6223 -12.716 -16.4043
ltibia 29.1391
lfoot -23.1821 11.6147
ltoes 3.3688
236
root -24.2892 16.3846 2.05796 -166.916 7.32301 -176.561
lowerback -14.4578 -1.52704 -3.94006
upperback -5.54984 -0.853142 4.32742
thorax 2.36373 -0.0147519 6.69484
lowerneck 12.3243 6.55361 -2.50797
upperneck 4.1676 12.2277 27.5988
head -2.9886 6.62409 8.03374
rclavicle -1.63997e-015 3.02153e-014
rhumerus 56.0756 -16.344 -53.0215
rradius 141.869
rwrist -13.1142
rhand -7.06102 7.74389
rfingers 7.12502
rthumb 18.8121 -21.3664
lclavicle -1.63997e-015 3.02153e-014
lhumerus -41.7832 36.8982 68.9755
lradius 11.6227
lwrist -69.178
lhand 5.65542 22.8193
lfingers 7.12502
lthumb 30.9949 50.2217
rfemur -18.5346 6.44959 19.7472
rtibia 22.8415
rfoot -8.48071 -13.3493
rtoes -23.4919
lfemur -19.6019 -12.5881 -16.4368
ltibia 29.1478
lfoot -23.2122 11.3636
ltoes 3.38976
237
root -24.2887 16.3857 2.05793 -166.975 7.36226 -176.515
lowerback -14.4215 -1.50509 -3.88981
upperback -5.51592 -0.838113 4.33344
thorax 2.37736 -0.0114358 6.67449
lowerneck 12.3729 6.53308 -2.38667
upperneck 3.99506 12.1941 27.3488
head -3.011 6.57951 7.93113
rclavicle -1.31695e-014 9.02482e-014
rhumerus 56.1979 -16.4683 -53.08
rradius 141.923
rwrist -13.2269
rhand -6.9258 7.45138
rfingers 7.12502
rthumb 18.9422 -21.6463
lclavicle -1.31695e-014 9.02482e-014
lhumerus -41.8427 37.2016 68.7698
lradius 11.6204
lwrist -69.4493
lhand 5.55434 22.8192
lfingers 7.12502
lthumb 30.8986 50.2399
rfemur -18.4736 6.51464 19.8033
rtibia 22.8577
rfoot -8.57019 -13.2964
rtoes -23.4378
lfemur -19.5147 -12.6228 -16.3978
ltibia 29.1401
lfoot -23.2481 11.3741
ltoes 3.64782
238
root -24.2871 16.3881 2.05824 -166.834 7.45425 -176.452
lowerback -14.5174 -1.50201 -3.82647
upperback -5.56307 -0.828201 4.35782
thorax 2.37723 -0.000213768 6.66639
lowerneck 12.264 6.51751 -2.36219
upperneck 4.09107 12.1224 27.2591
head -2.94302 6.55749 7.91201
rclavicle -6.80837e-015 -2.18663e-014
rhumerus 56.3233 -16.5009 -53.17
rradius 141.969
rwrist -13.3327
rhand -6.80254 7.25031
rfingers 7.12502
rthumb 19.0607 -21.8357
lclavicle -6.80837e-015 -2.18663e-014
lhumerus -41.9846 37.5162 68.5134
lradius 11.607
lwrist -69.671
lhand 5.46576 22.5441
lfingers 7.12502
lthumb 30.8141 49.9808
rfemur -18.6382 6.55979 19.8505
rtibia 22.8718
rfoot -8.62782 -13.1968
rtoes -23.1871
lfemur -19.6488 -12.6439 -16.2961
ltibia 29.1422
lfoot -23.23 11.4805
ltoes 4.00161
239
root -24.2868 16.3875 2.05816 -166.961 7.47478 -176.49
lowerback -14.3877 -1.51038 -3.84079
upperback -5.52531 -0.852518 4.34417
thorax 2.35094 -0.0178497 6.65483
lowerneck 12.1383 6.553 -2.44429
upperneck 4.11732 12.1597 27.3546
head -2.93329 6.58511 7.95786
rclavicle 5.1684e-015 3.73715e-014
rhumerus 56.4439 -16.503 -53.2559
rradius 141.973
rwrist -13.3415
rhand -6.87133 7.0775
rfingers 7.12502
rthumb 18.9946 -22.015
lclavicle 5.1684e-015 3.73715e-014
lhumerus -42.1115 37.9054 68.2122
lradius 11.5565
lwrist -70.0613
lhand 5.49989 22.2011
lfingers 7.12502
lthumb 30.8467 49.6317
rfemur -18.5019 6.49263 19.8219
rtibia 22.8688
rfoot -8.74716 -13.1165
rtoes -23.362
lfemur -19.5187 -12.683 -16.3692
ltibia 29.1618
lfoot -23.2309 11.5686
ltoes 3.8997
240
root -24.2866 16.3868 2.05697 -166.984 7.44177 -176.476
lowerback -14.3572 -1.49335 -3.7788
upperback -5.52831 -0.839466 4.29544
thorax 2.32833 -0.0125729 6.56792
lowerneck 12.0524 6.55204 -2.51183
upperneck 4.07509 12.2117 27.5918
head -2.96539 6.62006 8.04329
rclavicle -1.31198e-014 -2.94201e-014
rhumerus 56.4728 -16.625 -53.259
rradius 141.991
rwrist -13.3447
rhand -6.99302 6.9462
rfingers 7.12502
rthumb 18.8775 -22.1578
lclavicle -1.31198e-014 -2.94201e-014
lhumerus -42.0663 37.9162 68.1428
lradius 11.5348
lwrist -70.2211
lhand 5.49211 22.1122
lfingers 7.12502
lthumb 30.8392 49.5442
rfemur -18.4725 6.37044 19.8554
rtibia 22.8684
rfoot -8.77139 -13.0707
rtoes -23.8623
lfemur -19.5163 -12.6228 -16.3613
ltibia 29.1851
lfoot -23.2505 11.5253
ltoes 3.30586
241
root -24.2851 16.3841 2.05614 -166.986 7.42234 -176.403
lowerback -14.2772 -1.47558 -3.6632
upperback -5.57924 -0.826322 4.25642
thorax 2.22825 -0.00138245 6.45978
lowerneck 11.9904 6.52568 -2.44075
upperneck 4.1052 12.2145 27.7016
head -2.95206 6.63813 8.06978
rclavicle 1.45113e-014 -4.96962e-014
rhumerus 56.5416 -16.7564 -53.3112
rradius 142.03
rwrist -13.4722
rhand -6.94824 6.8032
rfingers 7.12502
rthumb 18.9206 -22.2966
lclavicle 1.45113e-014 -4.96962e-014
lhumerus -42.0969 37.8751 68.0152
lradius 11.5409
lwrist -70.3079
lhand 5.53099 22.1349
lfingers 7.12502
lthumb 30.8763 49.5598
rfemur -18.462 6.33337 19.9519
rtibia 22.884
rfoot -8.69501 -13.1109
rtoes -24.2015
lfemur -19.5125 -12.6994 -16.2727
ltibia 29.1945
lfoot -23.2176 11.6677
ltoes 2.60133
242
root -24.2823 16.3823 2.05585 -167.025 7.46423 -176.424
lowerback -14.2867 -1.48641 -3.72132
upperback -5.53526 -0.841638 4.2431
thorax 2.28227 -0.0149291 6.4769
lowerneck 11.9172 6.53135 -2.28439
upperneck 4.05063 12.2232 27.5519
head -2.93232 6.64 7.99543
rclavicle -2.83765e-014 1.23246e-014
rhumerus 56.7227 -16.89 -53.3906
rradius 142.001
rwrist -13.6052
rhand -6.86036 6.80491
rfingers 7.12502
rthumb 19.0051 -22.2866
lclavicle -2.83765e-014 1.23246e-014
lhumerus -42.005 37.9057 68.0549
lradius 11.5828
lwrist -70.2704
lhand 5.77867 22.0123
lfingers 7.12502
lthumb 31.1124 49.3923
rfemur -18.4286 6.31446 19.9374
rtibia 22.8872
rfoot -8.62131 -13.1027
rtoes -24.0365
lfemur -19.4568 -12.7765 -16.3091
ltibia 29.2077
lfoot -23.1672 11.9166
ltoes 2.38809
243
root -24.2805 16.383 2.05528 -167.042 7.5217 -176.492
lowerback -14.2618 -1.48 -3.82414
upperback -5.54439 -0.820832 4.22819
thorax 2.2573 -0.00347009 6.52363
lowerneck 11.823 6.5346 -2.26646
upperneck 4.08108 12.2072 27.5124
head -2.89962 6.64003 7.98562
rclavicle -1.15792e-014 -8.74653e-015
rhumerus 56.7502 -17.0139 -53.2969
rradius 141.995
rwrist -13.6433
rhand -6.8887 6.88036
rfingers 7.12502
rthumb 18.9779 -22.2138
lclavicle -1.15792e-014 -8.74653e-015
lhumerus -41.8739 37.7035 68.3042
lradius 11.6387
lwrist -70.0192
lhand 5.99027 21.8745
lfingers 7.12502
lthumb 31.3141 49.2157
rfemur -18.4278 6.21498 19.871
rtibia 22.8828
rfoot -8.64475 -13.0004
rtoes -23.9869
lfemur -19.4343 -12.7578 -16.4005
ltibia 29.2214
lfoot -23.137 11.9869
ltoes 2.75227
244
root -24.2796 16.3842 2.05495 -167.035 7.57396 -176.477
lowerback -14.3035 -1.44215 -3.82174
upperback -5.51994 -0.772076 4.23145
thorax 2.29859 0.0183269 6.53431
lowerneck 11.6954 6.54468 -2.33436
upperneck 4.09942 12.1965 27.5278
head -2.87607 6.6426 8.00866
rclavicle 1.6847e-014 -8.34896e-015
rhumerus 56.8005 -17.1585 -53.228
rradius 142.076
rwrist -13.6421
rhand -6.81783 6.76266
rfingers 7.12502
rthumb 19.046 -22.3248
lclavicle 1.6847e-014 -8.34896e-015
lhumerus -41.6641 37.5377 68.5959
lradius 11.6798
lwrist -69.823
lhand 6.05648 21.8416
lfingers 7.12502
lthumb 31.3771 49.1705
rfemur -18.4502 6.20704 19.8842
rtibia 22.9105
rfoot -8.81799 -12.9071
rtoes -24.1226
lfemur -19.4341 -12.6139 -16.3971
ltibia 29.2099
lfoot -23.169 11.8199
ltoes 2.98836
